<svg xmlns="http://www.w3.org/2000/svg" xmlns:xlink="http://www.w3.org/1999/xlink" width="222.424" height="143.55" viewBox="0 0 222.424 143.55">
  <defs>
    <filter id="Icon_awesome-mouse-pointer" x="79.246" y="44.969" width="85.249" height="98.582" filterUnits="userSpaceOnUse">
      <feOffset dy="3" input="SourceAlpha"/>
      <feGaussianBlur stdDeviation="5" result="blur"/>
      <feFlood flood-opacity="0.161"/>
      <feComposite operator="in" in2="blur"/>
      <feComposite in="SourceGraphic"/>
    </filter>
  </defs>
  <g id="Gruppe_13" data-name="Gruppe 13" transform="translate(-652.788 -129.22)">
    <g id="Gruppe_1" data-name="Gruppe 1" transform="translate(652.788 129.22)">
      <g id="Rechteck_2" data-name="Rechteck 2" fill="#efefef" stroke-linejoin="round">
        <path d="M5.261.111,209.742,4.437a4.185,4.185,0,0,1,1.683.4,5.065,5.065,0,0,1,1.448,1.031,5.653,5.653,0,0,1,1.064,1.507,5.576,5.576,0,0,1,.529,1.83l2.641,24.338a5.017,5.017,0,0,1-.132,1.846,4.2,4.2,0,0,1-.744,1.507,3.63,3.63,0,0,1-1.238,1.016,3.581,3.581,0,0,1-1.613.37L7.413,37.824A5.443,5.443,0,0,1,5.328,37.4a5.8,5.8,0,0,1-2.983-2.84,5.514,5.514,0,0,1-.533-2.071L.292,5.237a5,5,0,0,1,.3-2.032A4.722,4.722,0,0,1,3.239.478,5.04,5.04,0,0,1,5.261.111Z" stroke="none"/>
        <path d="M 213.1753234863281 36.37978363037109 C 213.5268402099609 36.38095092773438 213.8532257080078 36.30199432373047 214.1423645019531 36.15835952758789 C 214.4314117431641 36.0147819519043 214.6832427978516 35.80657196044922 214.8857879638672 35.54912567138672 C 215.0882873535156 35.29178237915039 215.2415466308594 34.98522567749023 215.3335876464844 34.64482498168945 C 215.4255981445312 34.30452728271484 215.4563903808594 33.93037033081055 215.4139404296875 33.53765869140625 L 212.7803802490234 9.176478385925293 C 212.7384490966797 8.788515090942383 212.6275482177734 8.417359352111816 212.4629669189453 8.078422546386719 C 212.2983551025391 7.739490032196045 212.0801239013672 7.432723045349121 211.8234558105469 7.173551082611084 C 211.5667724609375 6.914344787597656 211.2716064453125 6.702709197998047 210.9532928466797 6.554110050201416 C 210.6349029541016 6.405471324920654 210.2932739257812 6.319883823394775 209.9437255859375 6.312855243682861 L 5.379708290100098 2.199176788330078 C 4.945456981658936 2.190444231033325 4.536266803741455 2.270006418228149 4.168218612670898 2.42132568359375 C 3.800002336502075 2.572714567184448 3.47296667098999 2.795924663543701 3.203241109848022 3.074383020401001 C 2.933400869369507 3.352960586547852 2.720934152603149 3.68681812286377 2.58200216293335 4.05933141708374 C 2.44302225112915 4.431973934173584 2.377642631530762 4.843257904052734 2.40202784538269 5.276503086090088 L 3.934337854385376 32.50060653686523 C 3.959057092666626 32.93978500366211 4.071812629699707 33.35898208618164 4.254447937011719 33.74083709716797 C 4.437088489532471 34.12269973754883 4.689579010009766 34.4671516418457 4.993729114532471 34.75685501098633 C 5.297834873199463 35.04652404785156 5.653534889221191 35.28140640258789 6.042630672454834 35.44422912597656 C 6.431608200073242 35.60700225830078 6.853903770446777 35.69773101806641 7.291329860687256 35.69918060302734 L 213.1753234863281 36.37978363037109 M 213.3800964355469 38.28507995605469 L 7.412574768066406 37.82393646240234 C 6.681926250457764 37.82230377197266 5.976921081542969 37.67192459106445 5.327733516693115 37.40128326416016 C 4.678216457366943 37.13049697875977 4.084731101989746 36.73939895629883 3.577479124069214 36.25659561157227 C 3.070102691650391 35.7736701965332 2.649141073226929 35.19911956787109 2.344770908355713 34.56167984008789 C 2.040413856506348 33.92427062988281 1.852730393409729 33.22417068481445 1.811800599098206 32.49020004272461 L 0.2920522093772888 5.237388610839844 C 0.2516817450523376 4.513447761535645 0.3609403967857361 3.826859712600708 0.5929780006408691 3.205260038375854 C 0.8248818516731262 2.584019184112549 1.179382085800171 2.027801990509033 1.629638314247131 1.564084768295288 C 2.079574584960938 1.10069739818573 2.625089168548584 0.7297214269638062 3.239428043365479 0.4784912467002869 C 3.853299379348755 0.2274522185325623 4.535885334014893 0.09597890079021454 5.260567665100098 0.1113100722432137 L 209.7421112060547 4.437261581420898 C 210.3253479003906 4.449600219726562 210.8947296142578 4.592414855957031 211.4250640869141 4.840034484863281 C 211.9551544189453 5.08754301071167 212.4463348388672 5.439816474914551 212.8733825683594 5.871293067932129 C 213.3003387451172 6.302675724029541 213.6632995605469 6.813333511352539 213.9370727539062 7.377796173095703 C 214.2108459472656 7.94227933883667 214.3954620361328 8.560723304748535 214.4656829833984 9.207720756530762 L 217.1068267822266 33.54595565795898 C 217.1779327392578 34.20095443725586 217.1273040771484 34.82464218139648 216.9748382568359 35.39174270629883 C 216.8222808837891 35.95914077758789 216.5677337646484 36.4699821472168 216.2310333251953 36.89886093139648 C 215.8941345214844 37.32800674438477 215.4749298095703 37.67512130737305 214.9933471679688 37.91466903686523 C 214.5113983154297 38.15438842773438 213.9670257568359 38.28639602661133 213.3800964355469 38.28507995605469 Z" stroke="none" fill="#83bb26"/>
      </g>
      <g id="Rechteck_5" data-name="Rechteck 5" transform="translate(2.718 48.395)" fill="#efefef" stroke-linejoin="round">
        <path d="M5.317.334,103.541.015a4.756,4.756,0,0,1,1.9.393,5.33,5.33,0,0,1,1.608,1.082A5.688,5.688,0,0,1,108.2,3.1a5.616,5.616,0,0,1,.537,1.974l2.17,26.386a5.316,5.316,0,0,1-.213,2.011,4.811,4.811,0,0,1-.9,1.66,4.43,4.43,0,0,1-1.439,1.14,4.367,4.367,0,0,1-1.844.448l-99,2.244a5.359,5.359,0,0,1-2.107-.381,5.625,5.625,0,0,1-1.77-1.13A5.736,5.736,0,0,1,2.4,35.743a5.627,5.627,0,0,1-.54-2.112L.3,5.715A5.247,5.247,0,0,1,.6,3.623,5.012,5.012,0,0,1,1.648,1.914,4.952,4.952,0,0,1,3.274.761,5.1,5.1,0,0,1,5.317.334Z" stroke="none"/>
        <path d="M 106.3488540649414 34.65085983276367 C 106.7478790283203 34.64225387573242 107.1210861206055 34.54719543457031 107.454216003418 34.38280868530273 C 107.7872161865234 34.21850204467773 108.0801849365234 33.98493576049805 108.3188858032227 33.69919586181641 C 108.557502746582 33.41357421875 108.7419204711914 33.07581329345703 108.8579864501953 32.70295715332031 C 108.9739837646484 32.33022308349609 109.0216598510742 31.92237854003906 108.9868469238281 31.49641227722168 L 106.8274383544922 5.083786964416504 C 106.7930755615234 4.663341045379639 106.6798629760742 4.263011932373047 106.5046768188477 3.899134635925293 C 106.3294830322266 3.535265207290649 106.09228515625 3.207781076431274 105.8098831176758 2.933040857315063 C 105.5274505615234 2.658261775970459 105.1997528076172 2.436198472976685 104.8436279296875 2.283247947692871 C 104.4873962402344 2.130252838134766 104.1026611328125 2.046388387680054 103.7062301635742 2.048098087310791 L 5.438562870025635 2.471921920776367 C 4.999704837799072 2.473814725875854 4.586238384246826 2.565638542175293 4.214403629302979 2.73003077507019 C 3.842395782470703 2.894498825073242 3.512059211730957 3.131600856781006 3.23968243598938 3.42393684387207 C 2.967187643051147 3.716399192810059 2.7527174949646 4.064126014709473 2.612593412399292 4.449662685394287 C 2.472419500350952 4.835333347320557 2.406658887863159 5.258800506591797 2.43163537979126 5.702547550201416 L 4.001223087310791 33.58895111083984 C 4.026546001434326 34.03884887695312 4.140832901000977 34.46603393554688 4.32572078704834 34.85315322875977 C 4.510612487792969 35.24028396606445 4.766075134277344 35.58727264404297 5.073707580566406 35.87680053710938 C 5.381294727325439 36.16629028320312 5.740984439849854 36.39828491210938 6.13437032699585 36.55550765991211 C 6.527634620666504 36.71268844604492 6.954515933990479 36.79512405395508 7.396614551544189 36.78558731079102 L 106.3488540649414 34.65085983276367 M 106.5164031982422 36.71802139282227 L 7.52081823348999 38.96218490600586 C 6.782349586486816 38.97892379760742 6.069680213928223 38.84243392944336 5.413328170776367 38.58115768432617 C 4.75663948059082 38.31974029541016 4.156487941741943 37.93348693847656 3.643423318862915 37.45098114013672 C 3.13023042678833 36.96835327148438 2.704309463500977 36.38954544067383 2.396183967590332 35.74330520629883 C 2.088071584701538 35.09708786010742 1.897838234901428 34.38362121582031 1.855908036231995 33.63171005249023 L 0.2991477251052856 5.71518611907959 C 0.2577977180480957 4.973679542541504 0.3676994740962982 4.266746044158936 0.6017371416091919 3.623402833938599 C 0.8356383442878723 2.980434894561768 1.193488836288452 2.401098966598511 1.648182392120361 1.914245963096619 C 2.102548599243164 1.427743315696716 2.653576374053955 1.033636212348938 3.274247884750366 0.7606272101402283 C 3.894440889358521 0.487828403711319 4.584165096282959 0.3359433114528656 5.316542148590088 0.3335716128349304 L 103.5414810180664 0.01547510828822851 C 104.202880859375 0.01333316415548325 104.8441162109375 0.1533240526914597 105.4374084472656 0.4082206189632416 C 106.0304260253906 0.6629948616027832 106.5756912231445 1.032623887062073 107.0455169677734 1.490010261535645 C 107.5152206420898 1.94728946685791 107.9096221923828 2.492403984069824 108.2009963989258 3.098361968994141 C 108.4923782348633 3.704344987869263 108.6807861328125 4.371349334716797 108.7384414672852 5.072460174560547 L 110.9079437255859 31.45812034606934 C 110.9663467407227 32.16852569580078 110.8877182006836 32.84831237792969 110.6953964233398 33.46941757202148 C 110.5029678344727 34.09086990356445 110.1967239379883 34.65370178222656 109.7999649047852 35.12969207763672 C 109.4029693603516 35.60601425170898 108.9153137207031 35.99542617797852 108.3604888916016 36.26959609985352 C 107.8052368164062 36.54396438598633 107.1826858520508 36.70291900634766 106.5164031982422 36.71802139282227 Z" stroke="none" fill="#83bb26"/>
      </g>
      <path id="Rechteck_6" data-name="Rechteck 6" d="M4.7.3,91.756.014a4.1,4.1,0,0,1,1.7.371A4.944,4.944,0,0,1,94.914,1.4a5.6,5.6,0,0,1,1.074,1.517,5.677,5.677,0,0,1,.536,1.861l2.7,24.866a5.248,5.248,0,0,1-.13,1.894,4.45,4.45,0,0,1-.748,1.563A3.8,3.8,0,0,1,97.1,34.178a3.621,3.621,0,0,1-1.626.42L7.826,36.585a4.571,4.571,0,0,1-1.873-.36,5.178,5.178,0,0,1-1.6-1.063,5.682,5.682,0,0,1-1.7-3.588L.429,5.352a5.159,5.159,0,0,1,.2-1.966A4.577,4.577,0,0,1,1.5,1.781,4.151,4.151,0,0,1,4.7.3Z" transform="translate(122.675 48.046)" fill="#efefef"/>
      <path id="Icon_material-my-location" data-name="Icon material-my-location" d="M8.83,5.558a2.928,2.928,0,0,0-1.185.228,2.789,2.789,0,0,0-.94.653,2.822,2.822,0,0,0-.6.98,3.011,3.011,0,0,0-.169,1.209A3.273,3.273,0,0,0,6.25,9.844a3.444,3.444,0,0,0,.722,1,3.407,3.407,0,0,0,1.023.677,3.185,3.185,0,0,0,1.217.257,2.927,2.927,0,0,0,1.185-.233,2.788,2.788,0,0,0,.938-.656,2.823,2.823,0,0,0,.6-.981A3.013,3.013,0,0,0,12.1,8.7a3.273,3.273,0,0,0-.316-1.211,3.444,3.444,0,0,0-.72-.994,3.408,3.408,0,0,0-1.019-.677A3.187,3.187,0,0,0,8.83,5.558Zm7.007,2.411a7.434,7.434,0,0,0-.792-2.279A7.761,7.761,0,0,0,11.66,2.43a7.256,7.256,0,0,0-2.295-.69L9.267.146,7.728.122l.1,1.6A6.46,6.46,0,0,0,5.6,2.342,6.267,6.267,0,0,0,3.809,3.658,6.33,6.33,0,0,0,2.582,5.527a6.626,6.626,0,0,0-.521,2.278l-1.6-.019L.553,9.347l1.6.018a7.432,7.432,0,0,0,.8,2.3,7.76,7.76,0,0,0,3.417,3.274,7.248,7.248,0,0,0,2.31.68l.1,1.608,1.544.011-.1-1.606a6.451,6.451,0,0,0,2.22-.642,6.265,6.265,0,0,0,1.781-1.33,6.334,6.334,0,0,0,1.209-1.871,6.633,6.633,0,0,0,.507-2.269l1.575.017-.1-1.548ZM9.354,14.111a5.577,5.577,0,0,1-2.132-.447,5.957,5.957,0,0,1-1.792-1.185,6.022,6.022,0,0,1-1.266-1.747A5.732,5.732,0,0,1,3.611,8.6a5.274,5.274,0,0,1,.3-2.118A4.933,4.933,0,0,1,4.965,4.769,4.876,4.876,0,0,1,6.613,3.628a5.131,5.131,0,0,1,2.075-.4,5.583,5.583,0,0,1,2.123.455,5.959,5.959,0,0,1,1.78,1.184,6.022,6.022,0,0,1,1.257,1.737A5.734,5.734,0,0,1,14.4,8.726a5.279,5.279,0,0,1-.289,2.11,4.936,4.936,0,0,1-1.043,1.716,4.875,4.875,0,0,1-1.639,1.15A5.125,5.125,0,0,1,9.354,14.111Z" transform="translate(14.564 10.952)"/>
      <path id="Eisenbahnstr._54" data-name="Eisenbahnstr. 54" d="M8.628,16.59l-6.043-.054L1.852,5.472,7.88,5.56,7.957,6.7,3.188,6.63l.237,3.558,4.485.055.077,1.132L3.5,11.322,3.772,15.4l4.778.046Zm3.461.031-1.223-.011L10.3,8.345l1.221.016ZM10.045,6.11q-.029-.428.163-.625t.5-.192q.294,0,.521.21t.256.627q.029.421-.17.624t-.493.2q-.309,0-.529-.214T10.045,6.11Zm9.684,8.334q.081,1.15-.708,1.766t-2.3.6q-1.6-.014-2.531-.543l-.08-1.161q.6.307,1.277.487t1.292.185q.952.009,1.443-.3t.445-.946q-.034-.481-.464-.827t-1.641-.825q-1.151-.441-1.646-.766t-.755-.734q-.259-.409-.3-.973-.07-1.008.689-1.58T16.6,8.279q1.294.017,2.565.573l-.359,1.006q-1.241-.525-2.221-.538-.864-.011-1.284.261t-.386.761q.023.331.2.566t.562.45q.381.215,1.448.625,1.463.549,2,1.1T19.729,14.444Zm5.54,2.446q-1.767-.016-2.87-1.136t-1.243-3.095q-.141-1.987.726-3.143t2.463-1.134q1.493.02,2.436,1.043t1.062,2.681l.057.785-5.48-.06q.14,1.448.866,2.2t1.948.768q1.285.012,2.5-.53l.08,1.108q-.617.279-1.178.4T25.268,16.89ZM24.405,9.42q-.958-.012-1.483.624t-.546,1.774l4.161.048q-.085-1.173-.637-1.8T24.405,9.42Zm11.259,7.413-.393-5.283q-.074-1-.549-1.493t-1.409-.508q-1.238-.016-1.763.67T31.143,12.5l.315,4.295-1.2-.011L29.66,8.6l.974.013.277,1.12h.058q.323-.6.961-.921T33.38,8.5q1.422.019,2.192.738t.887,2.28l.4,5.324Zm6.681-8.2q1.537.02,2.47,1.122t1.087,3.1q.154,2-.617,3.1t-2.3,1.088q-.764-.007-1.418-.306t-1.13-.914h-.086l-.171,1.047-.852-.008-.87-11.554,1.185.018.212,2.8q.071.941.071,1.689h.057Q40.721,8.614,42.346,8.635Zm-.093,1.027q-1.212-.015-1.692.7t-.351,2.432q.13,1.716.736,2.462t1.819.756q1.091.01,1.561-.812t.352-2.371q-.122-1.585-.715-2.369T42.253,9.662Zm10.82,7.326-.324-1.155h-.056q-.519.756-1.074,1.021t-1.418.257q-1.155-.01-1.859-.639T47.548,14.7q-.19-2.457,3.558-2.532l1.309-.029-.039-.5q-.075-.951-.5-1.409t-1.288-.469q-.968-.012-2.143.592L48.009,9.4q.548-.317,1.216-.493t1.353-.166q1.383.018,2.1.668t.828,2.064L53.941,17Zm-2.718-.89q1.1.01,1.672-.612t.487-1.752L52.456,13l-1.168.039q-1.4.036-1.983.432t-.522,1.247q.052.666.465,1.018T50.355,16.1Zm11.283.967-.421-5.212q-.079-.984-.545-1.473T59.3,9.88q-1.211-.015-1.713.668t-.377,2.259l.337,4.222-1.167-.01L55.467,5.567l1.164.017.276,3.458q.05.625.027,1.036H57q.3-.576.9-.9t1.419-.315q1.4.019,2.163.728t.882,2.235l.426,5.253Zm8.78.079-.43-5.188q-.081-.979-.543-1.466t-1.363-.5q-1.193-.015-1.693.658t-.372,2.241l.346,4.217-1.156-.01L64.55,9.062l.939.012.278,1.1h.056q.306-.588.918-.905t1.4-.306q1.371.018,2.121.724t.877,2.239l.435,5.228Zm8.218-2.1q.095,1.115-.637,1.713t-2.151.586q-1.5-.013-2.388-.526l-.094-1.126q.57.3,1.208.472t1.217.179q.9.008,1.351-.29t.4-.918q-.04-.467-.449-.8t-1.556-.8q-1.089-.427-1.56-.742t-.721-.712q-.25-.4-.3-.944-.082-.977.622-1.532T75.6,9.062q1.216.016,2.42.555l-.321.976q-1.175-.509-2.1-.521-.812-.01-1.2.254t-.351.738q.027.321.2.549t.536.436q.361.208,1.371.606,1.384.532,1.9,1.062T78.637,15.04Zm4.416,1.367q.3,0,.577-.042t.435-.094l.08.923q-.176.093-.53.152t-.641.056q-2.177-.019-2.386-2.459l-.405-4.74-1.075-.014-.05-.581,1.032-.487.334-1.691.656.009.158,1.842,2.171.029.081.935-2.171-.028.4,4.686q.062.72.416,1.109T83.053,16.407Zm5.316-7.175q.495.007.9.1l-.058,1.111q-.471-.114-.823-.119-.9-.011-1.477.762t-.473,1.941l.371,4.266-1.131-.01-.689-7.949.932.012.257,1.471h.054q.347-.769.9-1.181T88.369,9.232Zm2.785,7.331q-.043-.485.142-.733t.571-.244q.393,0,.635.256t.285.737q.042.47-.159.722t-.587.248q-.345,0-.593-.233T91.153,16.563ZM100.685,11q1.546.019,2.506.852t1.09,2.261q.149,1.631-.732,2.549t-2.585.9q-1.658-.015-2.583-.593l-.1-1.154q.5.329,1.215.52t1.392.2q1.18.011,1.778-.58t.5-1.719q-.2-2.2-2.709-2.228-.637-.008-1.685.188l-.613-.4-.073-4.912,4.863.071.1,1.1-3.912-.055.036,3.151Q99.921,10.986,100.685,11Zm12,4.125-1.437-.015.224,2.407-1.055-.009-.223-2.408-4.73-.049-.1-1.041,3.961-7.019L110.5,7l.653,7.021,1.437.016ZM110.1,14.013l-.323-3.476q-.095-1.022-.148-2.306h-.053q-.255.681-.491,1.127l-2.608,4.617Z" transform="translate(41.71 8.225)"/>
      <path id="_11:30" data-name="11:30" d="M6.481,17.109l-1.213.019-.54-8.069q-.067-1-.067-1.9-.146.164-.329.344T2.65,9.029l-.718-.874L4.675,5.814,5.721,5.8Zm8.754-.138-1.2.019-.555-8.033q-.069-1-.071-1.892-.144.163-.325.342t-1.663,1.52L10.7,8.057l2.713-2.33,1.036-.01Zm4.471-.888q-.036-.516.17-.785t.627-.275q.427-.006.686.255t.295.777q.035.5-.189.773t-.644.28q-.376.006-.641-.233T19.706,16.084ZM19.228,9.3q-.073-1.036.8-1.045.905-.01.978,1.024.035.5-.188.77t-.644.277q-.376,0-.64-.234T19.228,9.3ZM29.442,8.192Q29.52,9.26,29,9.947t-1.559.93l0,.061q1.3.152,1.969.831t.752,1.8q.117,1.6-.879,2.476t-2.953.91q-.851.013-1.569-.11T23.35,16.39l-.087-1.214q.724.35,1.527.527t1.506.165q2.774-.042,2.609-2.316-.148-2.034-3.205-1.994l-1.055.014-.079-1.1,1.07-.013q1.252-.016,1.941-.6t.614-1.609q-.059-.817-.63-1.276t-1.491-.45q-.7.007-1.31.212t-1.369.749l-.677-.85q.621-.55,1.46-.868t1.789-.327q1.556-.015,2.471.719T29.442,8.192Zm9.2,2.823q.217,2.883-.541,4.321T35.561,16.8q-1.715.027-2.718-1.423t-1.211-4.276q-.214-2.913.548-4.331t2.53-1.434q1.723-.017,2.725,1.439T38.646,11.015Zm-5.792.074q.18,2.434.807,3.537t1.819,1.085q1.2-.018,1.66-1.151t.276-3.53q-.179-2.4-.8-3.5T34.791,6.435q-1.189.012-1.652,1.118T32.854,11.09Z" transform="translate(44.869 55.861)"/>
      <path id="_--:--" data-name="--:--" d="M1.73,12.6l-.1-1.109,3.259-.043.105,1.107Zm4.4-.061-.105-1.106,3.244-.043.106,1.1Zm5.084,2.6q-.047-.487.13-.741t.552-.259q.382-.006.62.242t.285.734q.046.472-.147.73t-.568.264q-.336.005-.579-.22T11.214,15.138ZM10.6,8.729q-.094-.978.682-.987.808-.009.9.968.046.471-.147.727t-.567.261q-.335,0-.578-.221T10.6,8.729Zm3.523,3.7-.107-1.1,3.215-.043.108,1.1Zm4.341-.06-.108-1.1,3.2-.042.109,1.1Z" transform="translate(160.186 55.168)"/>
      <path id="Icon_material-access-time" data-name="Icon material-access-time" d="M7.506.069A7.118,7.118,0,0,0,4.627.7,7.01,7.01,0,0,0,2.338,2.362,7.21,7.21,0,0,0,.87,4.818a7.609,7.609,0,0,0-.415,3A8.034,8.034,0,0,0,1.227,10.8a8.219,8.219,0,0,0,1.762,2.423,8,8,0,0,0,2.493,1.612,7.524,7.524,0,0,0,2.962.555,7.137,7.137,0,0,0,2.885-.654,7.027,7.027,0,0,0,2.276-1.683A7.216,7.216,0,0,0,15.052,10.6a7.6,7.6,0,0,0,.4-2.98,8.022,8.022,0,0,0-.772-2.961A8.22,8.22,0,0,0,12.93,2.252,8.026,8.026,0,0,0,10.456.642,7.559,7.559,0,0,0,7.506.069Zm.851,13.785a6.034,6.034,0,0,1-2.37-.445A6.408,6.408,0,0,1,3.993,12.12a6.571,6.571,0,0,1-1.41-1.937A6.426,6.426,0,0,1,1.966,7.8,6.086,6.086,0,0,1,2.3,5.4,5.764,5.764,0,0,1,3.47,3.433,5.612,5.612,0,0,1,5.3,2.1a5.708,5.708,0,0,1,2.306-.5,6.04,6.04,0,0,1,2.359.456A6.411,6.411,0,0,1,11.946,3.34a6.571,6.571,0,0,1,1.4,1.925,6.427,6.427,0,0,1,.617,2.372,6.09,6.09,0,0,1-.32,2.387,5.768,5.768,0,0,1-1.158,1.965,5.612,5.612,0,0,1-1.821,1.344A5.7,5.7,0,0,1,8.358,13.854ZM8.122,3.885,7,3.9l.28,4.595,4.081,2.358.5-.95-3.494-2Z" transform="translate(18.226 60.563)"/>
      <path id="Icon_material-access-time-2" data-name="Icon material-access-time" d="M6.636.061A5.857,5.857,0,0,0,4.108.65,5.944,5.944,0,0,0,2.135,2.214,6.6,6.6,0,0,0,.912,4.521,7.482,7.482,0,0,0,.637,7.337a8.135,8.135,0,0,0,2.4,5.084,7.379,7.379,0,0,0,2.253,1.517,6.432,6.432,0,0,0,2.636.525,5.872,5.872,0,0,0,2.532-.611,5.964,5.964,0,0,0,1.963-1.579,6.609,6.609,0,0,0,1.206-2.308,7.478,7.478,0,0,0,.262-2.8A8.127,8.127,0,0,0,11.5,2.116,7.4,7.4,0,0,0,9.263.6,6.467,6.467,0,0,0,6.636.061ZM7.807,13.018A5.159,5.159,0,0,1,5.7,12.6a5.907,5.907,0,0,1-1.8-1.212A6.5,6.5,0,0,1,1.971,7.319a5.984,5.984,0,0,1,.22-2.253,5.273,5.273,0,0,1,.978-1.846A4.758,4.758,0,0,1,4.748,1.97,4.7,4.7,0,0,1,6.772,1.5a5.167,5.167,0,0,1,2.1.43,5.913,5.913,0,0,1,1.79,1.212A6.5,6.5,0,0,1,12.576,7.18a5.991,5.991,0,0,1-.21,2.244A5.283,5.283,0,0,1,11.4,11.27a4.763,4.763,0,0,1-1.57,1.262A4.693,4.693,0,0,1,7.807,13.018ZM7.3,3.649,6.3,3.66,6.69,7.979l3.682,2.22.416-.893L7.636,7.425Z" transform="translate(136.747 59.477)"/>
    </g>
    <g transform="matrix(1, 0, 0, 1, 652.79, 129.22)" filter="url(#Icon_awesome-mouse-pointer)">
      <g id="Icon_awesome-mouse-pointer-2" data-name="Icon awesome-mouse-pointer" transform="translate(79.25 44.97)" fill="#fff">
        <path d="M59.661,49.087l-10.9,3.542L59.038,64.741a2.013,2.013,0,0,1,.287,2.166,1.967,1.967,0,0,1-.456.615l-4.337,3.844a1.848,1.848,0,0,1-1.4.463,1.951,1.951,0,0,1-.713-.205,2.026,2.026,0,0,1-.609-.477l-9.764-11.5L36.115,71.7a1.873,1.873,0,0,1-.814.854,1.853,1.853,0,0,1-1.058.193,1.994,1.994,0,0,1-1.008-.408,1.962,1.962,0,0,1-.662-.95L18.227,27.235a1.954,1.954,0,0,1-.016-1.194,1.991,1.991,0,0,1,.608-.92,1.9,1.9,0,0,1,.982-.446,1.734,1.734,0,0,1,1.108.227l39,20.567a1.863,1.863,0,0,1,.841.816,2.068,2.068,0,0,1-.157,2.126A1.83,1.83,0,0,1,59.661,49.087Z" stroke="none"/>
        <path d="M 54.50814437866211 73.7071533203125 C 54.12888336181641 73.83040618896484 53.74007415771484 73.89326477050781 53.35352325439453 73.8990478515625 C 52.96697235107422 73.90483856201172 52.58267974853516 73.85357666015625 52.21244430541992 73.74858856201172 C 51.84220504760742 73.64360046386719 51.48603057861328 73.48490905761719 51.15571212768555 73.27584075927734 C 50.82539749145508 73.06678771972656 50.52094650268555 72.80735778808594 50.25415802001953 72.50090789794922 L 50.24579238891602 72.49131011962891 L 50.237548828125 72.48159027099609 L 42.50779724121094 63.37804794311523 L 37.96538162231445 72.61199951171875 C 37.84526443481445 72.85615539550781 37.70413589477539 73.08408355712891 37.54434967041016 73.29373931884766 C 37.38456726074219 73.50341033935547 37.20612335205078 73.69478607177734 37.01137924194336 73.8658447265625 C 36.81663131713867 74.03688812255859 36.60557556152344 74.18759918212891 36.38056564331055 74.31591796875 C 36.15555191040039 74.44422912597656 35.91658401489258 74.55014801025391 35.6660041809082 74.63159942626953 C 35.42318344116211 74.71053314208984 35.17280578613281 74.76460266113281 34.91926574707031 74.79417419433594 C 34.66572570800781 74.82373046875 34.40900802612305 74.82876586914062 34.15349960327148 74.80959320068359 C 33.89798736572266 74.79042816162109 33.64368057250977 74.74706268310547 33.39495086669922 74.67983245849609 C 33.14622497558594 74.61259460449219 32.90307998657227 74.52149963378906 32.66988372802734 74.40685272216797 C 32.42357635498047 74.2857666015625 32.19319915771484 74.14216613769531 31.98085594177246 73.97849273681641 C 31.76851463317871 73.81481170654297 31.57420539855957 73.63105773925781 31.40003395080566 73.42964935302734 C 31.22586059570312 73.22824096679688 31.07182502746582 73.00917816162109 30.94002532958984 72.77490234375 C 30.8082275390625 72.54063415527344 30.69866752624512 72.29114532470703 30.61345100402832 72.02887725830078 L 16.26595687866211 27.87179756164551 C 16.09389686584473 27.34225082397461 16.03710174560547 26.80253791809082 16.08164596557617 26.2801342010498 C 16.12619209289551 25.75773048400879 16.2720775604248 25.25263404846191 16.50538444519043 24.79231452941895 C 16.73868751525879 24.33199310302734 17.05941200256348 23.91645240783691 17.4536304473877 23.57315826416016 C 17.84784889221191 23.22986602783203 18.3155632019043 22.95882034301758 18.84285163879395 22.78749465942383 C 19.10024833679199 22.70386123657227 19.36104774475098 22.64796257019043 19.62221908569336 22.61947822570801 C 19.88338851928711 22.59099197387695 20.14492988586426 22.58991622924805 20.40381050109863 22.61593246459961 C 20.66268920898438 22.64194679260254 20.91890716552734 22.6950511932373 21.16943359375 22.7749195098877 C 21.41996002197266 22.85478782653809 21.66479301452637 22.96142196655273 21.90090179443359 23.09449768066406 L 60.84761428833008 43.6351432800293 C 61.20729446411133 43.81628799438477 61.53029251098633 44.04705047607422 61.81063079833984 44.31685256958008 C 62.09096527099609 44.58665084838867 62.32863998413086 44.89548873901367 62.51766586303711 45.2327766418457 C 62.70669174194336 45.570068359375 62.84706878662109 45.93581390380859 62.93281173706055 46.31942749023438 C 63.01855087280273 46.70304489135742 63.04966354370117 47.10453414916992 63.0201530456543 47.51330947875977 C 62.99039459228516 47.92549133300781 62.90129470825195 48.32135009765625 62.76041412353516 48.69107055664062 C 62.61953735351562 49.06079483032227 62.42687225341797 49.40438079833984 62.18997955322266 49.71203231811523 C 61.95308303833008 50.01967620849609 61.67195510864258 50.29137420654297 61.35414886474609 50.51733016967773 C 61.03633880615234 50.74328231811523 60.68185424804688 50.92348098754883 60.29824066162109 51.04812622070312 L 52.3210334777832 53.64007568359375 L 60.60971450805664 63.40676116943359 C 60.78253936767578 63.60971069335938 60.93353652954102 63.82666397094727 61.06168365478516 64.05459594726562 C 61.18983459472656 64.28252410888672 61.29513549804688 64.52142333984375 61.37656784057617 64.76828002929688 C 61.4579963684082 65.01513671875 61.51556777954102 65.26995086669922 61.54824447631836 65.52969360351562 C 61.58092498779297 65.78943634033203 61.58871459960938 66.05411529541016 61.57060241699219 66.32068634033203 C 61.55269622802734 66.584228515625 61.51005172729492 66.84245300292969 61.44400405883789 67.09255218505859 C 61.37796020507812 67.34266662597656 61.28852081298828 67.58466339111328 61.17702865600586 67.81577301025391 C 61.06553268432617 68.04688262939453 60.93199157714844 68.26708221435547 60.77774429321289 68.47360992431641 C 60.62349700927734 68.68013000488281 60.44853973388672 68.87296295166016 60.25423049926758 69.04933929443359 L 60.24518203735352 69.05755615234375 L 60.23603439331055 69.06566619873047 L 55.89892578125 72.90934753417969 C 55.79695129394531 72.99980926513672 55.69120407104492 73.08444976806641 55.5819091796875 73.16314697265625 C 55.47261047363281 73.24183654785156 55.35976409912109 73.3145751953125 55.24357604980469 73.38123321533203 C 55.12739181518555 73.44789123535156 55.00786972045898 73.50845336914062 54.88522338867188 73.56282043457031 C 54.76258087158203 73.6171875 54.63681411743164 73.66533660888672 54.50814437866211 73.7071533203125 Z M 41.5824089050293 55.91704177856445 L 43.6168098449707 58.31302261352539 L 53.29289627075195 69.70881652832031 L 57.43452072143555 66.03836822509766 L 47.18703079223633 53.9636116027832 L 45.19710922241211 51.61885070800781 L 48.12192535400391 50.66852569580078 L 58.77851486206055 47.20598602294922 L 20.2880687713623 26.90597343444824 L 34.43513870239258 70.44622039794922 L 40.19499206542969 58.73743057250977 L 41.5824089050293 55.91704177856445 Z" stroke="none" fill="#000"/>
      </g>
    </g>
  </g>
</svg>
