<svg xmlns="http://www.w3.org/2000/svg" xmlns:xlink="http://www.w3.org/1999/xlink" width="288.167" height="201.843" viewBox="0 0 288.167 201.843"><defs><filter id="a" x="0" y="0" width="256.597" height="82.179" filterUnits="userSpaceOnUse"><feOffset dy="20" input="SourceAlpha"/><feGaussianBlur stdDeviation="10" result="b"/><feFlood flood-color="#353535" flood-opacity="0.161"/><feComposite operator="in" in2="b"/><feComposite in="SourceGraphic"/></filter><filter id="c" x="1.256" y="18.076" width="268.573" height="183.768" filterUnits="userSpaceOnUse"><feOffset dy="20" input="SourceAlpha"/><feGaussianBlur stdDeviation="10" result="d"/><feFlood flood-color="#353535" flood-opacity="0.161"/><feComposite operator="in" in2="d"/><feComposite in="SourceGraphic"/></filter><filter id="e" x="116.177" y="89.859" width="171.99" height="94.049" filterUnits="userSpaceOnUse"><feOffset dy="20" input="SourceAlpha"/><feGaussianBlur stdDeviation="10" result="f"/><feFlood flood-opacity="0.161"/><feComposite operator="in" in2="f"/><feComposite in="SourceGraphic"/></filter></defs><g transform="translate(0 0)"><g transform="matrix(1, 0, 0, 1, 0, 0)" filter="url(#a)"><path d="M40.173,10.289l175.843,4.994a9.2,9.2,0,0,1,3.468.8,10.537,10.537,0,0,1,2.978,2,10.957,10.957,0,0,1,2.183,2.906,10.2,10.2,0,0,1,1.08,3.52l.873,7.668L30.922,28.069,30.5,19.745a8.962,8.962,0,0,1,.61-3.78,8.734,8.734,0,0,1,2.029-3.036,9.186,9.186,0,0,1,3.127-1.991A10.091,10.091,0,0,1,40.173,10.289Z" transform="translate(0 0)" fill="#83bb26"/></g><path d="M4.5,8.849,1.27,8.772l-.3-5.558L4.2,3.3l.032.572L1.675,3.8l.1,1.789,2.4.06.031.57-2.4-.06L1.914,8.21l2.559.061Zm1.858.044L5.7,8.877,5.474,4.716l.656.017Zm-1.006-5.3q-.012-.216.093-.313t.271-.093q.158,0,.278.109t.132.317q.012.212-.1.313t-.267.1q-.166,0-.282-.111T5.356,3.589ZM10.5,7.858q.033.58-.4.884t-1.245.285q-.861-.02-1.358-.294l-.033-.585q.321.159.683.255t.694.1q.513.012.781-.139T9.869,7.9q-.014-.243-.243-.421t-.877-.429q-.616-.231-.88-.4t-.4-.375q-.136-.208-.152-.492-.028-.508.385-.791t1.163-.264q.7.018,1.379.307l-.2.505q-.665-.274-1.193-.287-.466-.012-.694.122t-.215.381q.009.167.1.287t.3.231q.2.111.775.326.784.288,1.07.568T10.5,7.858ZM13.47,9.137q-.956-.023-1.542-.6t-.643-1.571q-.057-1,.422-1.581t1.344-.555q.809.021,1.31.545t.55,1.363l.023.4-2.968-.073q.062.732.448,1.119t1.047.4q.7.017,1.36-.247l.033.56q-.337.136-.642.191T13.47,9.137Zm-.4-3.779q-.519-.013-.809.3t-.312.892l2.253.056q-.035-.594-.328-.916T13.074,5.358ZM19.118,9.2l-.16-2.679q-.03-.506-.284-.761t-.762-.268q-.674-.017-.966.326T16.7,6.966l.128,2.175-.651-.015-.244-4.144L16.463,5l.139.569h.031q.182-.3.532-.46t.793-.148q.775.02,1.187.39t.46,1.162l.162,2.7ZM22.853,5.09q.842.021,1.341.588t.562,1.584q.063,1.018-.372,1.57t-1.27.533q-.418-.01-.772-.167t-.608-.473h-.047l-.1.529-.465-.011-.355-5.868.648.017L21.5,4.815q.029.478.021.858h.031Q21.964,5.068,22.853,5.09Zm-.062.521q-.663-.017-.933.343T21.64,7.186q.053.872.376,1.254t.987.4q.6.014.864-.4t.218-1.2q-.05-.806-.366-1.209T22.791,5.611Zm5.86,3.81-.165-.591h-.031q-.294.38-.6.51t-.783.119q-.634-.015-1.014-.34t-.416-.909q-.077-1.251,1.984-1.26l.721,0-.016-.256q-.03-.485-.26-.722t-.7-.249q-.532-.013-1.185.286l-.228-.483q.3-.157.674-.242t.746-.075q.761.019,1.148.356t.433,1.058l.177,2.814Zm-1.485-.475q.6.014.927-.3t.288-.888l-.023-.372-.643.011q-.768.007-1.1.2t-.3.63q.021.339.244.521T27.166,8.946Zm6.212.587L33.206,6.87q-.032-.5-.284-.756t-.755-.266q-.669-.017-.955.328t-.234,1.149l.137,2.155-.644-.015L30.1,3.619l.643.017L30.856,5.4q.02.319,0,.528H30.9q.171-.292.51-.454t.788-.15q.777.02,1.189.388t.462,1.148l.173,2.685Zm4.87.115-.175-2.658q-.033-.5-.284-.755t-.752-.266q-.663-.017-.949.324t-.234,1.143L36,9.6l-.641-.015-.267-4.111.521.013.141.565h.031q.177-.3.521-.456t.779-.147q.762.019,1.171.387t.46,1.153l.177,2.68Zm4.61-1.008q.039.573-.378.873T41.271,9.8q-.838-.02-1.325-.29l-.038-.577q.314.157.668.252t.677.1q.5.012.758-.137t.237-.467q-.016-.24-.241-.415t-.859-.423q-.6-.228-.861-.393t-.393-.37q-.135-.205-.153-.486-.033-.5.366-.781t1.129-.261q.679.017,1.346.3l-.192.5q-.65-.27-1.165-.283-.453-.011-.674.121t-.205.376q.011.165.105.283t.293.228q.2.11.758.321.767.284,1.048.56T42.858,8.641Zm2.454.739q.169,0,.324-.017t.245-.045l.032.475q-.1.046-.3.073t-.36.023q-1.219-.029-1.3-1.282l-.165-2.437-.6-.015-.02-.3.584-.242.209-.866.368.009.064.948,1.217.031.033.481-1.217-.031.164,2.41q.025.37.219.573T45.312,9.379Zm3.082-3.647q.279.007.5.057l-.048.572q-.263-.062-.462-.067-.508-.013-.841.381t-.292.995l.151,2.2-.635-.015L46.49,5.759l.524.013.125.759h.031q.206-.393.519-.6T48.394,5.733Zm1.468,3.8q-.017-.25.09-.376t.325-.121q.221.005.354.137t.15.382q.017.243-.1.37t-.334.123q-.195,0-.331-.125T49.862,9.529Z" transform="translate(38.616 12.928)"/><path d="M4.226,5.3q.323,3.053-1.982,3-.4-.01-.647-.086l-.053-.51q.288.1.642.108.833.02,1.2-.5T3.68,5.7H3.639q-.16.291-.459.438t-.695.137q-.673-.017-1.113-.439T.856,4.676q-.085-.811.309-1.269t1.115-.439q.516.013.931.3t.678.807Q4.151,4.6,4.226,5.3ZM2.332,3.472q-.5-.013-.732.307t-.175.9q.054.512.334.812t.791.313q.316.008.567-.117t.38-.349q.129-.224.1-.473Q3.56,4.5,3.385,4.176t-.449-.508Q2.661,3.48,2.332,3.472ZM5.923,8.318l1.6-4.6L4.769,3.648l-.058-.543,3.361.087.05.471L6.56,8.333Zm6.482-2.439q.145,1.343-.194,2t-1.187.634Q10.21,8.49,9.713,7.8t-.638-2q-.145-1.355.195-2t1.18-.623q.819.021,1.317.715T12.405,5.879ZM9.654,5.81q.122,1.132.436,1.655t.88.536q.572.014.772-.5t.079-1.634q-.121-1.116-.433-1.641t-.884-.54q-.565-.015-.768.491T9.654,5.81Zm8.8,2.8-.278-2.522q-.051-.463-.268-.7t-.621-.246q-.531-.013-.75.295t-.147.963l.237,2.167-.57-.014-.276-2.525q-.051-.463-.268-.7t-.626-.247q-.535-.014-.748.311t-.131,1.079l.222,2.038L13.657,8.5l-.422-3.883.464.012.15.533h.027q.131-.279.407-.431t.64-.142q.881.022,1.224.687h.027q.135-.3.434-.468t.707-.158q.636.016.99.361T18.741,6.1l.279,2.529Z" transform="translate(195.794 17.219)"/><path d="M2.916,6.706C2.373,6,1.942,5.444,1.6,5S1,4.223.812,3.944a3.6,3.6,0,0,1-.4-.717,2.513,2.513,0,0,1-.154-.684,2.442,2.442,0,0,1,.095-.985A2.151,2.151,0,0,1,.805.763,2.081,2.081,0,0,1,1.541.239,2.263,2.263,0,0,1,2.488.065,2.629,2.629,0,0,1,3.476.29a2.965,2.965,0,0,1,.845.564,3.045,3.045,0,0,1,.615.82,2.82,2.82,0,0,1,.3.993,2.291,2.291,0,0,1-.013.678,2.707,2.707,0,0,1-.252.7c-.133.27-.319.594-.571,1.023s-.571.961-.97,1.649a.258.258,0,0,1-.1.1.282.282,0,0,1-.138.031.335.335,0,0,1-.145-.038.373.373,0,0,1-.125-.106Zm-.057-3.04a.942.942,0,0,0,.395-.073.867.867,0,0,0,.306-.219.9.9,0,0,0,.187-.331,1.018,1.018,0,0,0,.039-.41,1.175,1.175,0,0,0-.124-.414A1.269,1.269,0,0,0,3.4,1.875a1.235,1.235,0,0,0-.353-.235,1.1,1.1,0,0,0-.412-.093.942.942,0,0,0-.395.073.867.867,0,0,0-.306.219.9.9,0,0,0-.188.331,1.018,1.018,0,0,0-.039.41,1.175,1.175,0,0,0,.124.415,1.269,1.269,0,0,0,.257.342,1.235,1.235,0,0,0,.353.235A1.1,1.1,0,0,0,2.858,3.665Z" transform="translate(188.402 19.707)"/><g transform="matrix(1, 0, 0, 1, 0, 0)" filter="url(#c)"><path d="M30,10l195.623,4.11,11.845,103.937a10.02,10.02,0,0,1-.273,3.786,8.814,8.814,0,0,1-1.57,3.138,7.9,7.9,0,0,1-6.042,3.039l-182.65,5.442a10.677,10.677,0,0,1-4.161-.71,11.008,11.008,0,0,1-5.939-5.474,10.666,10.666,0,0,1-1.046-4.092Z" transform="translate(1.26 18.08)" fill="#fff"/></g><path d="M3.381,11.711l-1.625-.02-.51-7.649,4.45.069.09,1.324-2.83-.043.132,1.969L5.724,7.4l.09,1.321L3.178,8.684ZM14.505,8.033q.134,1.89-.744,2.894t-2.655.984q-1.779-.022-2.8-1.053T7.148,7.92q-.13-1.9.757-2.893t2.666-.959q1.778.028,2.789,1.05T14.505,8.033ZM8.871,7.954q.088,1.278.625,1.932t1.516.667q1.96.025,1.78-2.544t-2.127-2.6q-.977-.015-1.429.626T8.871,7.954Zm8.852-.291.525.007q.772.011,1.121-.238t.309-.794q-.039-.539-.43-.773T18.068,5.62l-.493-.007Zm.094,1.31.21,2.92-1.632-.02-.542-7.6,2.237.035q1.562.024,2.352.6t.873,1.719q.049.669-.285,1.185t-.994.8q1.917,2.584,2.5,3.34l-1.8-.022L18.683,8.985Zm11.741-.791Q29.7,10.05,28.7,11.03t-3.023.957l-2.166-.027-.558-7.58,2.4.037q1.865.029,2.969,1.021T29.558,8.182ZM27.885,8.2q-.183-2.435-2.35-2.468l-.861-.013.365,4.933.695.009Q28.071,10.691,27.885,8.2Zm7.929,3.913-1.581-.02-.581-7.546,4.33.068.1,1.306L35.33,5.879l.151,1.943,2.564.036.1,1.3-2.565-.035Zm4.257.053-.594-7.528,1.6.025.6,7.523Zm7.842.1-4.326-.054-.6-7.517L47.3,4.76l.106,1.3L44.681,6.02l.133,1.648,2.538.036.106,1.3-2.539-.035.156,1.939,2.73.035Zm5.822-2.008q.085,1.015-.594,1.591t-1.977.56q-1.2-.015-2.156-.479l-.121-1.48q.785.349,1.321.494t.97.151q.521.007.783-.19t.229-.591q-.018-.22-.155-.394t-.387-.336q-.251-.162-1.01-.521-.712-.333-1.079-.635t-.6-.7q-.237-.4-.28-.925-.081-.994.544-1.552t1.809-.539q.581.009,1.12.155t1.135.405L52.877,6.5q-.617-.254-1.015-.357t-.776-.109q-.449-.007-.672.2t-.195.544q.017.21.127.368t.334.307q.224.149,1.047.539,1.087.517,1.517,1.026T53.735,10.255Zm4.416,2.135-1.577-.02-.518-6.159-2.019-.03-.11-1.318,5.6.087.112,1.315-2.013-.03Zm7.707.1-.69-1.783-2.695-.035-.384,1.771L60.4,12.418l1.97-7.453,1.913.03,3.264,7.512ZM64.679,9.372q-.951-2.42-1.072-2.737t-.177-.5q-.11.649-.677,3.211Z" transform="translate(79.007 38.005)"/><path d="M5.472,8.872,4.7,8.867,2.443,6.129l-.56.517.147,2.2-.662,0L1,3.231l.66.006.186,2.779L4.228,3.262l.779.007L2.891,5.681Zm1.342.01-.643,0-.406-5.96.642.006Zm3.175.1Q9.05,8.975,8.467,8.4T7.815,6.825q-.07-1.014.394-1.607t1.313-.584q.795.007,1.294.529t.558,1.37l.028.4L8.486,6.91q.07.739.454,1.125t1.033.391q.684.005,1.332-.273l.04.567q-.33.143-.628.2T9.989,8.981ZM9.551,5.164q-.51,0-.79.322t-.295.908l2.213.018q-.042-.6-.334-.922T9.551,5.164Zm3.737,3.764-.64,0-.294-4.189.639.006ZM12.221,3.6q-.015-.217.085-.317t.262-.1q.154,0,.273.105t.134.318q.015.214-.089.317t-.258.1q-.162,0-.277-.107T12.221,3.6Zm5.322,5.358-.194-2.706q-.037-.511-.289-.764t-.751-.258q-.661-.006-.943.346t-.224,1.169l.156,2.2-.639,0-.3-4.185.519,0,.144.573h.031q.174-.307.515-.474t.775-.163q.76.007,1.169.374t.467,1.167l.2,2.728ZM22.931,9l-.948-2.455q-.089-.225-.346-1.022h-.031q-.1.665-.193,1.025L20.8,8.982l-.736-.005L18.616,4.791l.666.006q.52,1.576.792,2.4T20.4,8.309h.031q.026-.217.1-.561t.123-.546l.594-2.388.688.006.924,2.4q.262.656.371,1.1h.031q.005-.137.051-.422t.57-3.062l.656.006L23.683,9Zm5.249.038-.17-.594h-.03q-.283.389-.583.526t-.765.133q-.621,0-1-.327t-.42-.912Q25.12,6.6,27.138,6.555l.706-.017-.019-.258q-.037-.49-.265-.725t-.693-.239q-.521,0-1.156.309l-.23-.484q.3-.164.656-.256t.729-.088q.745.007,1.129.34T28.434,6.2l.214,2.841ZM26.718,8.58q.59,0,.9-.316t.269-.9l-.028-.376-.63.022q-.752.021-1.07.225t-.285.642q.025.342.247.523T26.718,8.58Zm6.33-3.66.03.4-.762.084q.116.133.216.348t.12.484q.047.61-.342.97t-1.117.355q-.186,0-.351-.033-.386.209-.362.532.013.171.16.254t.488.085l.736.005q.675.005,1.059.292t.425.83q.053.691-.473,1.05t-1.589.352q-.817-.005-1.283-.312T29.5,9.751q-.029-.38.194-.656t.655-.371q-.165-.073-.285-.226t-.135-.354q-.017-.228.091-.4t.359-.327q-.333-.135-.56-.456t-.258-.73q-.052-.683.33-1.049t1.133-.359q.326,0,.593.081ZM30.1,9.748q.026.338.324.515t.83.18q.793.005,1.157-.23t.332-.641q-.026-.338-.244-.47t-.8-.137l-.755-.005q-.429,0-.653.2T30.1,9.748Zm.075-3.524q.033.436.3.662t.7.229q.921.007.853-.887-.071-.936-1-.944-.444,0-.665.233T30.178,6.224Zm5.814,2.943Q35.074,9.161,34.5,8.6t-.652-1.562q-.077-1,.371-1.59T35.5,4.866q.778.007,1.27.523t.558,1.355l.031.4L34.5,7.119q.075.731.455,1.113t1.014.386q.669,0,1.3-.27l.044.56q-.321.142-.613.2T35.993,9.167ZM35.53,5.392q-.5,0-.77.318t-.28.9l2.165.018q-.046-.594-.335-.912T35.53,5.392Zm5.889,3.739-.212-2.678q-.04-.506-.289-.757t-.738-.255q-.647-.006-.921.343t-.21,1.157l.171,2.175-.626,0-.325-4.143.509,0,.146.567h.03q.168-.3.5-.469t.758-.161q.745.007,1.149.37t.467,1.156l.215,2.7Zm7-1.415q.059.727-.431,1.13t-1.39.4q-.975-.007-1.52-.264l-.05-.619q.349.146.753.232t.794.089q.637,0,.939-.236t.267-.674q-.023-.286-.152-.47t-.409-.34q-.28-.157-.842-.357-.786-.281-1.144-.661t-.407-.986q-.051-.636.394-1.008t1.227-.364q.815.008,1.523.315l-.153.554q-.7-.292-1.339-.3-.505,0-.772.211t-.236.6q.023.286.143.47t.381.338q.261.155.789.343.885.316,1.238.672T48.417,7.716Z" transform="translate(80.022 53.32)"/><path d="M18.5,6.217l-.532-1.135L17.03,3.071A4.981,4.981,0,0,0,16.26,1.9,5.061,5.061,0,0,0,13.96.4a4.926,4.926,0,0,0-1.383-.22L7.33.108a4.661,4.661,0,0,0-1.367.18A4.3,4.3,0,0,0,4.769.841a4.1,4.1,0,0,0-1.59,2.042l-.715,2-.4,1.131a2.486,2.486,0,0,0-.672.37,2.387,2.387,0,0,0-.514.547,2.342,2.342,0,0,0-.318.688,2.44,2.44,0,0,0-.083.792l.109,1.948a2.523,2.523,0,0,0,.074.478,2.628,2.628,0,0,0,.159.449,2.8,2.8,0,0,0,.234.413,2.992,2.992,0,0,0,.3.37l.124,2.2a1.324,1.324,0,0,0,.134.508,1.428,1.428,0,0,0,.31.417,1.466,1.466,0,0,0,.441.283,1.414,1.414,0,0,0,.526.107l1.336.011a1.311,1.311,0,0,0,.514-.1,1.224,1.224,0,0,0,.408-.275A1.189,1.189,0,0,0,5.4,14.81a1.225,1.225,0,0,0,.076-.505l-.075-1.3,10.617.1L16.1,14.4a1.327,1.327,0,0,0,.135.5,1.429,1.429,0,0,0,.308.414,1.457,1.457,0,0,0,.437.281,1.394,1.394,0,0,0,.52.106l1.32.011a1.285,1.285,0,0,0,.507-.1,1.2,1.2,0,0,0,.4-.274,1.175,1.175,0,0,0,.257-.409,1.222,1.222,0,0,0,.072-.5l-.136-2.182a2.428,2.428,0,0,0,.251-.361,2.346,2.346,0,0,0,.285-.848,2.428,2.428,0,0,0,.016-.474l-.121-1.932a2.608,2.608,0,0,0-.175-.788,2.769,2.769,0,0,0-.394-.691,2.932,2.932,0,0,0-1.279-.94ZM5.7,3.875a1.753,1.753,0,0,1,.273-.5A1.774,1.774,0,0,1,6.384,3,1.857,1.857,0,0,1,6.9,2.762a1.98,1.98,0,0,1,.584-.079l5.251.072a2.093,2.093,0,0,1,.592.094,2.19,2.19,0,0,1,.989.64,2.116,2.116,0,0,1,.33.5l.943,2.014L4.991,5.877l.712-2ZM3.92,10.387a1.612,1.612,0,0,1-.551-.1,1.318,1.318,0,0,1-.436-.267,1.274,1.274,0,0,1-.294-.411,1.489,1.489,0,0,1-.126-.531,1.386,1.386,0,0,1,.066-.528,1.058,1.058,0,0,1,.248-.4,1.1,1.1,0,0,1,.406-.258,1.506,1.506,0,0,1,.54-.087,1.5,1.5,0,0,1,.66.2,3.309,3.309,0,0,1,.677.492,3.24,3.24,0,0,1,.536.635,1.4,1.4,0,0,1,.236.632.475.475,0,0,1-.175.426,1.032,1.032,0,0,1-.489.181,4.128,4.128,0,0,1-.647.034C4.345,10.4,4.12,10.39,3.92,10.387Zm13.261.138c-.2,0-.42,0-.643,0a4.179,4.179,0,0,1-.646-.047,1.17,1.17,0,0,1-.506-.19.551.551,0,0,1-.224-.428,1.246,1.246,0,0,1,.16-.625,2.629,2.629,0,0,1,.457-.621,2.679,2.679,0,0,1,.614-.475,1.322,1.322,0,0,1,.631-.185,1.59,1.59,0,0,1,.545.1A1.309,1.309,0,0,1,18,8.319a1.275,1.275,0,0,1,.293.408,1.492,1.492,0,0,1,.127.527,1.384,1.384,0,0,1-.062.525,1.047,1.047,0,0,1-.243.4,1.079,1.079,0,0,1-.4.257,1.479,1.479,0,0,1-.534.087Z" transform="translate(47.811 43.717)"/><path d="M.936,8.535,4.06,4.869.124,1.134,1.087.014l5.15,4.878L2.15,9.685Z" transform="translate(215.291 49.919)"/><g transform="translate(45.796 75.429)" fill="none"><path d="M.028.5,175.193.75" stroke="none"/><path d="M 175.2448272705078 1.217481970787048 L 0.05545736104249954 1.008180260658264 L 2.212318395322654e-05 -4.888155217486201e-06 L 175.1414489746094 0.2820365428924561 L 175.2448272705078 1.217481970787048 Z" stroke="none" fill="#d9d9d9"/></g><path d="M7.1.019A6.921,6.921,0,0,0,4.374.577,6.565,6.565,0,0,0,.806,4.326,6.754,6.754,0,0,0,.4,7.067a7.191,7.191,0,0,0,.718,2.74,7.654,7.654,0,0,0,4.013,3.729,7.354,7.354,0,0,0,2.8.532,6.938,6.938,0,0,0,2.737-.578,6.616,6.616,0,0,0,2.165-1.527A6.541,6.541,0,0,0,14.221,9.72a6.747,6.747,0,0,0,.388-2.731,7.182,7.182,0,0,0-.723-2.721,7.587,7.587,0,0,0-1.651-2.216A7.669,7.669,0,0,0,9.9.561,7.385,7.385,0,0,0,7.1.019Zm.758,12.639a5.9,5.9,0,0,1-2.244-.426,6.123,6.123,0,0,1-3.211-2.98A5.752,5.752,0,0,1,1.83,7.059a5.4,5.4,0,0,1,.322-2.194A5.228,5.228,0,0,1,3.27,3.074,5.287,5.287,0,0,1,5.008,1.866a5.55,5.55,0,0,1,2.185-.447,5.9,5.9,0,0,1,2.233.432,6.123,6.123,0,0,1,3.192,2.967A5.754,5.754,0,0,1,13.2,7a5.406,5.406,0,0,1-.311,2.187,5.229,5.229,0,0,1-1.105,1.795A5.285,5.285,0,0,1,10.049,12.2,5.545,5.545,0,0,1,7.861,12.657Zm-.188-9.14-1.065,0,.249,4.212,3.86,2.191.479-.868L7.892,7.2Z" transform="translate(53.374 85.695)"/><path d="M0,.1,30.253,0l.766,10.078-30.34.234Z" transform="translate(82.615 87.4)" fill="#d9d9d9"/><path d="M0,.183,14.279,0l.877,14.225L.819,14.493Z" transform="translate(54.775 110.054)" fill="#d9d9d9"/><path d="M0,1.28,94.295,0l.955,9.951L.688,11.645Z" transform="translate(84.225 110.459)" fill="#d9d9d9"/><path d="M0,.1,29.384,0l.861,9.932L.778,10.159Z" transform="translate(117.385 87.285)" fill="#d9d9d9"/></g><g transform="translate(116.177 89.859)"><g transform="matrix(1, 0, 0, 1, -116.18, -89.86)" filter="url(#e)"><path d="M31.911,10.984l104.555-.968a1.741,1.741,0,0,1,.7.141,2.031,2.031,0,0,1,.6.4,2.206,2.206,0,0,1,.444.592,2.155,2.155,0,0,1,.224.729l3.329,27.7a1.981,1.981,0,0,1-.048.746,1.712,1.712,0,0,1-.3.616,1.514,1.514,0,0,1-1.173.589L34.774,44a1.926,1.926,0,0,1-.764-.14,2.1,2.1,0,0,1-.65-.415,2.2,2.2,0,0,1-.468-.628,2.157,2.157,0,0,1-.219-.777l-2.5-29.076a1.943,1.943,0,0,1,.084-.767,1.785,1.785,0,0,1,.356-.629,1.717,1.717,0,0,1,.571-.427A1.774,1.774,0,0,1,31.911,10.984Z" transform="translate(116.18 89.86)" fill="#83bb26"/></g><path d="M1.644,5.488l2.878-.041q1.963-.028,2.908.547T8.5,7.849q.088.87-.244,1.434t-.964.688l.007.067q.9.192,1.343.751t.539,1.5q.134,1.332-.7,2.095t-2.407.793l-3.468.064ZM3.987,9.31l1.139-.018q.8-.013,1.127-.278t.271-.863q-.056-.558-.468-.795T4.8,7.133l-1.031.015Zm.163,1.639L4.4,13.491l1.279-.023q.81-.014,1.163-.348t.285-1.006Q7.009,10.9,5.365,10.929Zm13.656-5.69.649,6.256q.111,1.074-.258,1.891t-1.184,1.265q-.815.448-1.989.47-1.773.033-2.852-.911t-1.249-2.614l-.633-6.251,1.941-.027.6,5.933q.114,1.123.6,1.641t1.467.5q.954-.017,1.329-.552t.259-1.663l-.609-5.91Zm6.287,1.474Q23,6.75,22.5,7.626t-.344,2.43q.339,3.235,2.626,3.195.958-.017,2.265-.55l.183,1.719q-1.066.517-2.448.542Q22.792,15,21.6,13.735t-1.439-3.66q-.157-1.508.242-2.648t1.3-1.757q.9-.617,2.2-.635,1.322-.019,2.727.64L26.2,7.342q-.536-.249-1.071-.433T24.093,6.733ZM36.63,14.611l-1.906.035-.452-4.155L30.7,10.55l.448,4.162-1.921.035L28.193,5.112l1.916-.027.405,3.766,3.574-.056-.409-3.76,1.9-.027Zm7.463-.137-5.166.1L37.872,4.976,43.025,4.9l.185,1.659-3.254.048.232,2.1,3.03-.048.185,1.663-3.031.05.274,2.474,3.26-.058Zm9.789-.18-2.393.044L46.8,7.175h-.055q.331,1.911.424,2.728l.508,4.5-1.691.031L44.91,4.876l2.381-.034,4.671,7.082H52q-.3-1.859-.391-2.629L51.1,4.789l1.69-.024Z" transform="translate(69.176 16.27)" fill="#fff"/><g transform="translate(46.075 20.737)" fill="#fff"><path d="M5.981,9.581,2.347,6.18,1.323,7.368,6.2,11.929,14.752,1.858,13.533.715Z" stroke="none"/><path d="M 6.26277494430542 12.62758636474609 L 5.896241664886475 12.28465557098389 L 1.019941568374634 7.722481727600098 L 0.6517250537872314 7.377995491027832 L 0.9575261473655701 7.023537158966064 L 1.982039451599121 5.836013317108154 L 2.285011053085327 5.484832286834717 L 2.65006685256958 5.826503753662109 L 5.916640758514404 8.883747100830078 L 13.16971588134766 0.373676061630249 L 13.4676513671875 0.02411594241857529 L 13.83096885681152 0.3647313117980957 L 15.0499382019043 1.507486343383789 L 15.41332912445068 1.848149657249451 L 15.11597156524658 2.198425531387329 L 6.564602851867676 12.27202033996582 L 6.26277494430542 12.62758636474609 Z M 1.994399189949036 7.357993602752686 L 6.133604049682617 11.23107528686523 L 14.09127998352051 1.867236733436584 L 13.59874248504639 1.405553936958313 L 6.346980571746826 9.92351245880127 L 6.04527759552002 10.27788639068604 L 5.679182052612305 9.935287475585938 L 2.409865140914917 6.875888824462891 L 1.994399189949036 7.357993602752686 Z" stroke="none" fill="#fff"/></g></g></svg>