<svg id="Gruppe_8" data-name="Gruppe 8" xmlns="http://www.w3.org/2000/svg" xmlns:xlink="http://www.w3.org/1999/xlink" width="274.821" height="167.443" viewBox="0 0 274.821 167.443">
  <defs>
    <filter id="Rechteck_9" x="0" y="0" width="270.727" height="84.688" filterUnits="userSpaceOnUse">
      <feOffset dy="20" input="SourceAlpha"/>
      <feGaussianBlur stdDeviation="10" result="blur"/>
      <feFlood flood-color="#353535" flood-opacity="0.161"/>
      <feComposite operator="in" in2="blur"/>
      <feComposite in="SourceGraphic"/>
    </filter>
    <filter id="Rechteck_8" x="0.755" y="19.962" width="274.066" height="112.025" filterUnits="userSpaceOnUse">
      <feOffset dy="20" input="SourceAlpha"/>
      <feGaussianBlur stdDeviation="10" result="blur-2"/>
      <feFlood flood-color="#353535" flood-opacity="0.161"/>
      <feComposite operator="in" in2="blur-2"/>
      <feComposite in="SourceGraphic"/>
    </filter>
  </defs>
  <g id="Gruppe_7" data-name="Gruppe 7" transform="translate(32.944 92.182)">
    <path id="Rechteck_9-2" data-name="Rechteck 9" d="M10.355.672,203.906.029a8.525,8.525,0,0,1,3.456.731A9.762,9.762,0,0,1,210.3,2.773a10.72,10.72,0,0,1,3.119,6.669l.82,9.482L.783,21.453l-.393-10.4a10.117,10.117,0,0,1,.666-4.039,9.9,9.9,0,0,1,5.31-5.521A10.116,10.116,0,0,1,10.355.672Z" transform="translate(0)" fill="#83bb26"/>
    <path id="Rechteck_8-2" data-name="Rechteck 8" d="M0,2.529,213.456,0l3.4,39.311a10.311,10.311,0,0,1-.363,3.79,9.2,9.2,0,0,1-1.616,3.145,8.2,8.2,0,0,1-2.619,2.177,7.829,7.829,0,0,1-3.372.882L12.551,55.98a10.369,10.369,0,0,1-4.117-.7A10.617,10.617,0,0,1,5,53.11a10.74,10.74,0,0,1-3.373-7.428Z" transform="translate(0.783 18.924)" fill="#fff"/>
    <path id="Rechteck_10" data-name="Rechteck 10" d="M0,.412,65.371,0,65.7,6.032.247,6.612Z" transform="translate(9.611 7.475)" fill="#efefef"/>
    <path id="Rechteck_12" data-name="Rechteck 12" d="M0,1.54,78.58,0l.4,5.97L.308,7.716Z" transform="translate(54.833 37.709)" fill="#efefef"/>
    <path id="Rechteck_11" data-name="Rechteck 11" d="M0,.15,23.835,0l.483,5.7L.456,5.908Z" transform="translate(181.505 6.654)" fill="#efefef"/>
    <path id="Rechteck_15" data-name="Rechteck 15" d="M0,.034,5.379,0l.453,5.765L.447,5.813Z" transform="translate(173.446 6.821)" fill="#efefef"/>
    <path id="Rechteck_13" data-name="Rechteck 13" d="M0,1.02,43.42,0l.424,7.1L.361,8.258Z" transform="translate(55.296 47.5)" fill="#efefef"/>
    <path id="Rechteck_14" data-name="Rechteck 14" d="M0,.322,16.424,0l.757,16.644L.7,17.082Z" transform="translate(19.193 39.625)" fill="#efefef"/>
  </g>
  <g id="Gruppe_6" data-name="Gruppe 6">
    <g transform="matrix(1, 0, 0, 1, 0, 0)" filter="url(#Rechteck_9)">
      <path id="Rechteck_9-3" data-name="Rechteck 9" d="M40.171,10.312l190.406,5.844a8.745,8.745,0,0,1,3.4.819,10.07,10.07,0,0,1,2.891,2.036,10.749,10.749,0,0,1,2.083,2.952,10.366,10.366,0,0,1,.979,3.572l.792,9.154L30.754,29.962l-.378-10a9.379,9.379,0,0,1,.657-3.859A9.07,9.07,0,0,1,33.1,13a9.3,9.3,0,0,1,3.153-2.03A9.947,9.947,0,0,1,40.171,10.312Z" transform="translate(0 0)" fill="#83bb26"/>
    </g>
    <path id="Eisenbahnstr." d="M5.47,11.056l-4.036-.1-.285-7.1,4.03.112.03.731L2.02,4.614,2.112,6.9l3,.08.03.727-3-.079.105,2.613,3.193.081Zm2.317.058-.819-.02-.22-5.311.818.022ZM6.619,4.344q-.011-.276.121-.4t.34-.118q.2.006.345.14t.16.405q.011.271-.126.4t-.335.124q-.207-.006-.351-.143T6.619,4.344ZM12.959,9.8q.032.74-.511,1.128t-1.557.363q-1.073-.027-1.689-.376l-.031-.746q.4.2.848.326t.864.133q.64.016.975-.176t.318-.6q-.013-.31-.3-.537t-1.087-.548q-.765-.3-1.091-.509t-.492-.479q-.166-.265-.181-.628Q9,6.5,9.523,6.136T10.978,5.8q.87.024,1.714.394l-.262.644q-.824-.35-1.483-.368-.58-.016-.868.155t-.274.485q.009.213.126.366t.369.295q.252.142.961.417.973.368,1.324.725T12.959,9.8Zm3.682,1.633q-1.191-.03-1.911-.763t-.775-2q-.055-1.28.552-2.016t1.684-.706q1.008.027,1.623.7t.662,1.739l.022.506-3.7-.1q.065.933.539,1.428t1.3.515q.867.022,1.7-.314l.032.714q-.422.173-.8.243T16.642,11.432Zm-.431-4.819Q15.565,6.6,15.2,7t-.4,1.137l2.806.074q-.033-.757-.393-1.169T16.211,6.613Zm7.46,4.9L23.516,8.1q-.029-.645-.34-.97t-.944-.342q-.838-.023-1.208.415T20.7,8.668l.124,2.772-.811-.02-.235-5.283.659.018.164.726h.039q.231-.383.67-.585t.989-.187q.964.026,1.471.5t.553,1.482l.157,3.441Zm4.714-5.226q1.046.028,1.657.751t.672,2.018q.061,1.3-.489,2t-1.588.678q-.519-.013-.957-.214t-.748-.6h-.058l-.139.674-.578-.014L25.814,4.1l.805.023L26.7,5.932q.028.61.012,1.093h.039Q27.28,6.255,28.385,6.285Zm-.085.664q-.824-.022-1.166.436t-.291,1.568q.051,1.11.447,1.6t1.221.509q.742.019,1.08-.508t.291-1.53Q29.833,8,29.447,7.482T28.3,6.948Zm7.216,4.858-.2-.752h-.039q-.372.484-.757.649t-.974.151q-.788-.02-1.254-.434t-.5-1.159q-.075-1.593,2.485-1.6l.9-.005-.016-.326q-.03-.618-.311-.919t-.87-.317q-.661-.018-1.477.362l-.275-.615q.381-.2.841-.307T34,6.437q.945.026,1.42.454t.519,1.347l.173,3.583ZM33.679,11.2q.748.019,1.156-.378t.372-1.13l-.023-.474-.8.013q-.954.009-1.364.259t-.384.8q.02.432.295.664T33.679,11.2Zm7.7.753-.168-3.389q-.032-.64-.34-.963t-.932-.34q-.83-.022-1.19.417t-.31,1.462l.134,2.742-.8-.02-.362-7.441.8.022.11,2.249q.02.406-.006.673h.048Q38.58,7,39,6.79t.98-.19q.964.026,1.468.5t.553,1.462l.17,3.416Zm6.036.151-.172-3.38q-.032-.638-.339-.96t-.928-.339q-.821-.022-1.181.411t-.309,1.454l.138,2.745-.795-.02-.262-5.231.646.018.165.718h.038q.224-.38.653-.58t.968-.185q.945.026,1.445.493t.551,1.467l.174,3.408Zm5.727-1.278q.038.728-.483,1.109t-1.5.357q-1.038-.026-1.636-.369l-.038-.734q.386.2.823.321t.836.131q.618.016.941-.174t.3-.594q-.016-.3-.291-.528t-1.056-.538q-.742-.29-1.059-.5T49.5,8.835q-.163-.261-.182-.618-.033-.638.467-.992t1.4-.33q.841.023,1.661.387l-.247.634q-.8-.344-1.437-.361-.561-.015-.837.153t-.26.478q.011.209.125.36t.359.29q.245.139.933.409.944.362,1.288.713T53.143,10.826Zm3.025.941q.208.005.4-.021t.3-.056l.032.6q-.125.059-.371.093t-.446.029q-1.508-.038-1.592-1.631l-.163-3.1-.745-.02-.02-.38L54.3,6.98l.273-1.1.455.013.063,1.2,1.505.041.032.612-1.506-.041.161,3.063q.025.471.261.728T56.168,11.767Zm3.875-4.631q.344.009.621.074l-.069.726q-.325-.08-.57-.086-.628-.017-1.046.483T58.6,9.6l.149,2.791-.785-.02-.277-5.2.647.018.141.964h.038q.261-.5.652-.763T60.043,7.136Zm1.75,4.825q-.017-.318.118-.478t.4-.153q.273.007.435.174t.179.485q.017.308-.13.47t-.415.155q-.24-.006-.407-.159T61.792,11.961Z" transform="translate(39.276 13.252)"/>
    <path id="_970m" data-name="970m" d="M4.555,5.951q.28,3.487-2.281,3.422-.448-.011-.717-.1l-.046-.582q.317.114.711.124.926.024,1.35-.568t.366-1.838H3.892q-.185.332-.521.5t-.776.156q-.749-.02-1.226-.5T.823,5.229Q.75,4.3,1.2,3.78t1.251-.5q.574.016,1.028.339t.733.923Q4.49,5.143,4.555,5.951ZM2.5,3.856q-.551-.015-.822.35T1.456,5.238q.047.585.351.928t.872.358q.351.009.634-.133t.431-.4q.149-.255.126-.54-.034-.426-.221-.792t-.486-.581Q2.862,3.866,2.5,3.856ZM6.364,9.4l1.9-5.25L5.2,4.061l-.05-.62,3.735.1.044.538L7.072,9.414ZM13.63,6.619q.126,1.534-.268,2.279t-1.336.722q-.9-.023-1.438-.812T9.932,6.52q-.126-1.547.268-2.284t1.327-.71q.909.026,1.445.819T13.63,6.619Zm-3.055-.082q.106,1.293.441,1.89t.963.613q.635.016.871-.574T12.981,6.6q-.1-1.274-.438-1.875t-.968-.618q-.627-.017-.866.559T10.575,6.537Zm9.7,3.212L20.031,6.87q-.044-.528-.279-.8t-.683-.282q-.589-.016-.84.336t-.189,1.1L18.245,9.7l-.632-.016L17.374,6.8q-.044-.529-.279-.8t-.688-.283q-.594-.016-.839.354T15.393,7.3l.193,2.327-.633-.016L14.586,5.18l.515.014.153.609h.03q.152-.318.463-.491t.714-.162q.978.027,1.341.786h.03q.157-.342.494-.534t.789-.18q.706.019,1.09.414t.454,1.241L20.9,9.765Z" transform="translate(208.207 18.231)"/>
    <path id="Icon_awesome-map-marker-alt" data-name="Icon awesome-map-marker-alt" d="M2.957,7.37C2.393,6.589,1.946,5.984,1.59,5.5S.97,4.641.774,4.335a3.889,3.889,0,0,1-.41-.788,2.789,2.789,0,0,1-.148-.752A2.769,2.769,0,0,1,.341,1.712,2.444,2.444,0,0,1,.843.84a2.294,2.294,0,0,1,.8-.575A2.391,2.391,0,0,1,2.661.075,2.714,2.714,0,0,1,3.712.323,3.077,3.077,0,0,1,4.6.944a3.243,3.243,0,0,1,.638.9,3.109,3.109,0,0,1,.294,1.092,2.589,2.589,0,0,1-.031.745,3.086,3.086,0,0,1-.287.768c-.149.3-.355.652-.635,1.122S3.947,6.629,3.5,7.383a.288.288,0,0,1-.114.11.3.3,0,0,1-.148.034.345.345,0,0,1-.154-.041.39.39,0,0,1-.131-.116Zm.013-3.339a1,1,0,0,0,.424-.08.956.956,0,0,0,.333-.24,1.019,1.019,0,0,0,.208-.364A1.154,1.154,0,0,0,3.986,2.9a1.3,1.3,0,0,0-.122-.455A1.351,1.351,0,0,0,3.6,2.065a1.282,1.282,0,0,0-.371-.259,1.131,1.131,0,0,0-.438-.1,1,1,0,0,0-.424.08.956.956,0,0,0-.333.24,1.019,1.019,0,0,0-.209.364,1.154,1.154,0,0,0-.052.451,1.3,1.3,0,0,0,.122.456,1.351,1.351,0,0,0,.266.377,1.282,1.282,0,0,0,.372.259A1.13,1.13,0,0,0,2.969,4.031Z" transform="translate(200.238 20.954)"/>
    <g transform="matrix(1, 0, 0, 1, 0, 0)" filter="url(#Rechteck_8)">
      <path id="Rechteck_8-3" data-name="Rechteck 8" d="M30,10l209.972,4.726,3.284,37.943a9.606,9.606,0,0,1-.364,3.634,8.43,8.43,0,0,1-1.6,2.971,7.6,7.6,0,0,1-5.907,2.74l-193.1-.245a10.573,10.573,0,0,1-4.042-.81,10.948,10.948,0,0,1-5.71-5.464,10.367,10.367,0,0,1-.964-3.986Z" transform="translate(0.75 19.96)" fill="#fff"/>
    </g>
    <path id="Ford_Fiesta" data-name="Ford Fiesta" d="M3.466,12.9,1.7,12.876,1.28,4.4l4.828.08.075,1.468L3.113,5.894l.11,2.183,2.858.043.075,1.465L3.3,9.545Zm12.126-4.07q.111,2.094-.858,3.206t-2.9,1.089Q9.911,13.1,8.818,11.955T7.617,8.7q-.108-2.111.871-3.206T11.4,4.43Q13.323,4.462,14.4,5.6T15.592,8.828Zm-6.108-.09q.073,1.417.644,2.142t1.632.739q2.125.029,1.974-2.818T11.474,5.918q-1.06-.017-1.561.693T9.484,8.738Zm9.6-.318.569.009q.836.013,1.219-.263t.349-.879q-.033-.6-.453-.857T19.5,6.156l-.535-.009Zm.078,1.451.175,3.234-1.768-.023-.452-8.424,2.424.04q1.693.028,2.538.664T23,7.267q.041.741-.33,1.313t-1.092.889q2.029,2.863,2.643,3.7l-1.954-.025L20.1,9.884ZM31.9,9q.118,2.068-.978,3.154t-3.291,1.058l-2.345-.03-.465-8.4,2.595.043q2.02.033,3.2,1.133T31.9,9Zm-1.812.019q-.153-2.7-2.5-2.735l-.932-.015.3,5.464.752.01Q30.241,11.778,30.085,9.02Zm8.509,4.336-1.711-.022L36.4,4.977l4.687.078L41.17,6.5l-2.98-.047.126,2.152,2.774.042.085,1.443L38.4,10.05Zm4.6.06-.5-8.334,1.727.029.5,8.328Zm8.479.11L47,13.464l-.5-8.321,4.668.077.089,1.44-2.948-.047.111,1.824,2.745.042.089,1.443-2.745-.04.13,2.146,2.952.04Zm6.334-2.219q.071,1.123-.674,1.759t-2.149.619q-1.294-.017-2.321-.53l-.1-1.637q.842.386,1.418.547t1.046.167q.563.008.85-.21t.26-.654q-.015-.244-.16-.436t-.412-.371q-.268-.18-1.081-.577-.763-.368-1.153-.7t-.639-.775q-.248-.44-.284-1.025-.068-1.1.62-1.717t1.967-.6q.628.01,1.208.173t1.219.449L57.16,7.146q-.662-.282-1.09-.4t-.837-.121q-.486-.008-.73.22t-.222.6q.014.232.13.407t.355.34q.239.165,1.121.6,1.165.572,1.619,1.137T58.011,11.307Zm4.728,2.362-1.7-.022L60.6,6.833,58.42,6.8,58.328,5.34l6.056.1.094,1.455L62.3,6.86Zm8.322.108-.707-1.971-2.909-.04-.452,1.959L65.164,13.7l2.283-8.244,2.066.034L72.88,13.8Zm-1.207-3.443q-.977-2.677-1.1-3.028t-.181-.554q-.133.718-.8,3.552Z" transform="translate(82.459 40.957)"/>
    <path id="Kleinwagen_S" data-name="Kleinwagen S" d="M6.611,11,5.648,11,2.9,7.528,2.2,8.184l.14,2.792-.822-.006L1.162,3.852l.82.008.177,3.526L5.176,3.891l.967.009L3.468,6.959Zm1.665.011-.8-.005L7.091,3.454l.8.008Zm3.936.124q-1.165-.008-1.876-.731t-.778-2q-.067-1.286.52-2.037t1.64-.741q.986.009,1.594.67t.665,1.736L14,8.544l-3.615-.028q.073.937.542,1.426t1.274.494q.848.006,1.657-.347l.038.718q-.411.182-.783.259T12.213,11.139ZM11.744,6.3q-.632-.006-.986.408T10.374,7.86l2.744.022q-.04-.761-.4-1.168T11.744,6.3ZM16.3,11.07l-.793-.005-.282-5.307.792.007ZM15.084,4.32q-.015-.275.112-.4t.327-.125q.191,0,.336.134t.16.4q.014.271-.117.4t-.322.13q-.2,0-.341-.136T15.084,4.32Zm6.488,6.785-.187-3.426q-.035-.647-.342-.968t-.925-.326q-.818-.007-1.174.439t-.3,1.481l.15,2.782L18,11.081l-.285-5.3.643.006.168.726h.038q.222-.389.648-.6t.963-.206q.941.008,1.441.473t.555,1.478l.189,3.454Zm6.665.045L27.113,8.044q-.106-.285-.408-1.294h-.038q-.142.841-.259,1.3L25.6,11.132l-.91-.006-1.709-5.3.825.007q.612,2,.933,3.039t.379,1.406h.038q.037-.275.129-.711t.163-.691l.783-3.023.851.008,1.1,3.036q.311.831.437,1.4h.038q.009-.173.071-.534t.765-3.876l.811.007-1.132,5.264Zm6.487.044-.2-.751h-.038q-.357.493-.73.666t-.948.169q-.768-.005-1.227-.413t-.5-1.154q-.091-1.6,2.4-1.654l.873-.022-.019-.327q-.036-.619-.313-.917t-.851-.3q-.644-.006-1.435.391l-.275-.612q.369-.208.816-.324t.9-.112q.921.008,1.389.43T35.094,7.6L35.3,11.2Zm-1.8-.575q.729.005,1.122-.4t.35-1.141L34.372,8.6l-.778.028q-.929.026-1.326.285t-.366.812q.025.433.294.661T32.927,10.619Zm7.89-4.632.03.5-.942.107q.141.169.259.44t.139.611q.045.771-.442,1.227t-1.387.45q-.23,0-.433-.042-.481.265-.457.673.013.216.192.32t.6.107l.909.006q.833.006,1.3.369t.508,1.049q.052.873-.6,1.328t-1.969.447q-1.008-.006-1.578-.394t-.61-1.09q-.028-.481.252-.83t.817-.47q-.2-.093-.347-.286t-.16-.448q-.017-.288.121-.5t.449-.414q-.408-.171-.683-.576t-.3-.923q-.05-.863.429-1.326t1.406-.454q.4,0,.731.1Zm-3.732,6.107q.025.428.39.651t1.021.227q.979.006,1.432-.291t.423-.811q-.025-.427-.292-.594t-.979-.172l-.932-.006q-.53,0-.81.254T37.086,12.093Zm.163-4.457q.032.552.353.837t.864.29q1.137.009,1.071-1.122-.069-1.183-1.22-1.193-.548,0-.825.295T37.248,7.636Zm7.116,3.718q-1.134-.008-1.832-.721T41.76,8.659q-.075-1.269.49-2.01t1.589-.731q.959.009,1.556.661t.661,1.713l.03.5-3.518-.027q.078.924.538,1.406t1.243.488q.825.006,1.609-.343l.043.708q-.4.179-.76.256T44.365,11.354ZM43.87,6.582q-.615-.005-.957.4T42.549,8.12l2.67.022q-.045-.75-.395-1.152T43.87,6.582ZM51.054,11.3,50.846,7.92q-.039-.639-.341-.956t-.9-.322q-.8-.007-1.142.433t-.282,1.462l.167,2.748-.772-.005-.317-5.236.627.006.169.717h.037q.213-.384.627-.593t.938-.2q.917.008,1.408.467t.552,1.46l.21,3.411ZM59.7,9.512q.058.918-.554,1.427t-1.718.5q-1.2-.008-1.866-.332l-.049-.782q.427.184.922.292t.975.112q.783.005,1.16-.3t.342-.851q-.023-.361-.178-.593t-.5-.429q-.341-.2-1.03-.45-.962-.355-1.4-.834t-.481-1.245q-.05-.8.506-1.273t1.518-.46q1,.01,1.868.4l-.2.7q-.855-.369-1.642-.376-.622-.006-.954.266t-.3.762q.023.361.166.593t.462.427q.318.2.964.433,1.083.4,1.509.848T59.7,9.512Z" transform="translate(83.295 57.792)"/>
    <path id="Icon_awesome-car-alt" data-name="Icon awesome-car-alt" d="M19.841,6.846,19.286,5.6,18.3,3.387A5.383,5.383,0,0,0,16.378,1.1,5.3,5.3,0,0,0,15.038.454,5.172,5.172,0,0,0,13.552.211L7.9.123a4.951,4.951,0,0,0-1.476.2A4.661,4.661,0,0,0,5.129.928,4.548,4.548,0,0,0,4.091,1.9a4.643,4.643,0,0,0-.706,1.278l-.8,2.2L2.133,6.62a2.708,2.708,0,0,0-.73.407A2.642,2.642,0,0,0,.489,8.384a2.746,2.746,0,0,0-.1.871L.477,11.4a2.809,2.809,0,0,0,.072.526,2.892,2.892,0,0,0,.164.493,3.048,3.048,0,0,0,.246.454,3.215,3.215,0,0,0,.316.407l.1,2.416a1.464,1.464,0,0,0,.137.558,1.549,1.549,0,0,0,.8.768,1.486,1.486,0,0,0,.565.117l1.439.012a1.4,1.4,0,0,0,.555-.108,1.336,1.336,0,0,0,.732-.754,1.379,1.379,0,0,0,.089-.555L5.63,14.3l11.428.11.065,1.421a1.466,1.466,0,0,0,.137.554,1.542,1.542,0,0,0,.791.763,1.462,1.462,0,0,0,.558.116l1.42.012a1.369,1.369,0,0,0,.547-.107,1.316,1.316,0,0,0,.72-.749,1.376,1.376,0,0,0,.086-.551l-.112-2.4a2.722,2.722,0,0,0,.276-.4,2.647,2.647,0,0,0,.32-.931,2.727,2.727,0,0,0,.025-.52l-.1-2.123a2.892,2.892,0,0,0-.176-.866A3.006,3.006,0,0,0,21.2,7.88a3.106,3.106,0,0,0-.606-.611A3.075,3.075,0,0,0,19.841,6.846ZM6.09,4.267a1.964,1.964,0,0,1,.747-.961,2.013,2.013,0,0,1,.555-.262,2.1,2.1,0,0,1,.631-.086l5.656.081a2.2,2.2,0,0,1,.636.1,2.289,2.289,0,0,1,.576.278,2.323,2.323,0,0,1,.48.427,2.289,2.289,0,0,1,.348.553L16.7,6.615,5.293,6.468l.8-2.2ZM4.072,11.426a1.694,1.694,0,0,1-.592-.109,1.39,1.39,0,0,1-.466-.294,1.375,1.375,0,0,1-.311-.452,1.65,1.65,0,0,1-.128-.583,1.56,1.56,0,0,1,.079-.581,1.188,1.188,0,0,1,.273-.445,1.2,1.2,0,0,1,.441-.283,1.6,1.6,0,0,1,.583-.1,1.576,1.576,0,0,1,.709.221,3.5,3.5,0,0,1,.722.541,3.477,3.477,0,0,1,.567.7,1.541,1.541,0,0,1,.245.695A.534.534,0,0,1,6,11.207a1.113,1.113,0,0,1-.529.2,4.368,4.368,0,0,1-.7.037C4.53,11.44,4.287,11.428,4.072,11.426Zm14.276.155c-.213,0-.452,0-.692,0a4.394,4.394,0,0,1-.694-.052,1.226,1.226,0,0,1-.542-.209.6.6,0,0,1-.235-.471,1.406,1.406,0,0,1,.182-.687,3.1,3.1,0,0,1,1.169-1.2,1.417,1.417,0,0,1,.682-.2,1.668,1.668,0,0,1,.585.108,1.359,1.359,0,0,1,.769.741,1.652,1.652,0,0,1,.129.579,1.558,1.558,0,0,1-.075.577,1.156,1.156,0,0,1-.7.725,1.573,1.573,0,0,1-.576.1Z" transform="translate(48.763 47.222)"/>
    <path id="Icon_material-keyboard-arrow-right" data-name="Icon material-keyboard-arrow-right" d="M.777,9.331,4.2,5.325.1,1.24,1.158.016,6.52,5.351,2.041,10.587Z" transform="translate(228.205 54.104)"/>
  </g>
</svg>
